<svg width="32" height="32" viewBox="0 0 32 32" fill="none" xmlns="http://www.w3.org/2000/svg">
<path d="M5.75 16.25C5.75 15.009 6.78141 14 8.05 14H20.7C21.9686 14 23 15.009 23 16.25V26.375C23 27.616 21.9686 28.625 20.7 28.625H12.1037C11.6797 27.7285 11.0292 26.9551 10.2206 26.375H13.8V25.25C13.8 24.6277 14.3139 24.125 14.95 24.125H17.25C17.8861 24.125 18.4 24.6277 18.4 25.25V26.375H20.7V16.25H8.05V17.9762C7.37437 17.593 6.58734 17.375 5.75 17.375V16.25ZM5.75 18.5C6.20306 18.5 6.65168 18.5873 7.07026 18.7569C7.48883 18.9265 7.86916 19.1751 8.18952 19.4885C8.50988 19.8019 8.76401 20.174 8.93738 20.5834C9.11076 20.9929 9.2 21.4318 9.2 21.875C9.2 22.3182 9.11076 22.7571 8.93738 23.1666C8.76401 23.576 8.50988 23.9481 8.18952 24.2615C7.86916 24.5749 7.48883 24.8235 7.07026 24.9931C6.65168 25.1627 6.20306 25.25 5.75 25.25C5.29694 25.25 4.84832 25.1627 4.42974 24.9931C4.01117 24.8235 3.63084 24.5749 3.31048 24.2615C2.99012 23.9481 2.73599 23.576 2.56262 23.1666C2.38924 22.7571 2.3 22.3182 2.3 21.875C2.3 21.4318 2.38924 20.9929 2.56262 20.5834C2.73599 20.174 2.99012 19.8019 3.31048 19.4885C3.63084 19.1751 4.01117 18.9265 4.42974 18.7569C4.84832 18.5873 5.29694 18.5 5.75 18.5ZM4.79047 26.375H6.70594C9.35453 26.375 11.5 28.4738 11.5 31.0613C11.5 31.5781 11.0723 32 10.5405 32H0.959531C0.427656 32 0 31.5816 0 31.0613C0 28.4738 2.14547 26.375 4.79047 26.375Z" fill="#C8C8C8"/>
<path d="M15.3033 15.9099C16.7098 17.3164 18.6174 18.1066 20.6066 18.1066C22.5957 18.1066 24.5033 17.3164 25.9099 15.9099C27.3164 14.5034 28.1066 12.5957 28.1066 10.6066C28.1066 8.61748 27.3164 6.70982 25.9099 5.3033C24.5033 3.89678 22.5957 3.1066 20.6066 3.1066C18.6174 3.1066 16.7098 3.89678 15.3033 5.3033C13.8967 6.70982 13.1066 8.61748 13.1066 10.6066C13.1066 12.5957 13.8967 14.5034 15.3033 15.9099ZM20.6066 7.25061C20.996 7.25061 21.3109 7.56549 21.3088 7.95288V9.90019H23.2561C23.6456 9.90019 23.9605 10.2151 23.9584 10.6025C23.9563 10.9898 23.6435 11.3068 23.2561 11.3047H21.3088V13.252C21.3088 13.6415 20.994 13.9564 20.6066 13.9543C20.2192 13.9522 19.9022 13.6394 19.9043 13.252V11.3047H17.957C17.5675 11.3047 17.2526 10.9898 17.2547 10.6025C17.2568 10.2151 17.5696 9.89811 17.957 9.90019H19.9043V7.95288C19.9043 7.56342 20.2192 7.24853 20.6066 7.25061Z" fill="#509BF8"/>
</svg>
