<svg width="31" height="32" viewBox="0 0 31 32" fill="none" xmlns="http://www.w3.org/2000/svg">
<path d="M14.5895 12.9688C14.9542 12.9688 15.2526 13.2641 15.2526 13.625V29.375C15.2526 29.7359 14.9542 30.0312 14.5895 30.0312H2.65263C2.28789 30.0312 1.98947 29.7359 1.98947 29.375V13.625C1.98947 13.2641 2.28789 12.9688 2.65263 12.9688H14.5895ZM2.65263 11C1.18954 11 0 12.1771 0 13.625V29.375C0 30.8229 1.18954 32 2.65263 32H14.5895C16.0526 32 17.2421 30.8229 17.2421 29.375V13.625C17.2421 12.1771 16.0526 11 14.5895 11H2.65263ZM8.62105 21.5C9.32457 21.5 9.99928 21.2234 10.4967 20.7312C10.9942 20.2389 11.2737 19.5712 11.2737 18.875C11.2737 18.1788 10.9942 17.5111 10.4967 17.0188C9.99928 16.5266 9.32457 16.25 8.62105 16.25C7.91753 16.25 7.24282 16.5266 6.74536 17.0188C6.24789 17.5111 5.96842 18.1788 5.96842 18.875C5.96842 19.5712 6.24789 20.2389 6.74536 20.7312C7.24282 21.2234 7.91753 21.5 8.62105 21.5ZM7.29474 22.8125C5.46276 22.8125 3.97895 24.2809 3.97895 26.0938C3.97895 26.4547 4.27737 26.75 4.64211 26.75H12.6C12.9647 26.75 13.2632 26.4547 13.2632 26.0938C13.2632 24.2809 11.7793 22.8125 9.94737 22.8125H7.29474ZM19.8947 14.2812C19.8947 13.9203 19.5963 13.625 19.2316 13.625C18.8668 13.625 18.5684 13.9203 18.5684 14.2812V16.9062C18.5684 17.2672 18.8668 17.5625 19.2316 17.5625C19.5963 17.5625 19.8947 17.2672 19.8947 16.9062V14.2812ZM19.2316 18.875C18.8668 18.875 18.5684 19.1703 18.5684 19.5312V22.1562C18.5684 22.5172 18.8668 22.8125 19.2316 22.8125C19.5963 22.8125 19.8947 22.5172 19.8947 22.1562V19.5312C19.8947 19.1703 19.5963 18.875 19.2316 18.875ZM19.8947 24.7812C19.8947 24.4203 19.5963 24.125 19.2316 24.125C18.8668 24.125 18.5684 24.4203 18.5684 24.7812V27.4062C18.5684 27.7672 18.8668 28.0625 19.2316 28.0625C19.5963 28.0625 19.8947 27.7672 19.8947 27.4062V24.7812Z" fill="#C8C8C8"/>
<path d="M14.3033 15.9099C15.7098 17.3164 17.6174 18.1066 19.6066 18.1066C21.5957 18.1066 23.5033 17.3164 24.9099 15.9099C26.3164 14.5034 27.1066 12.5957 27.1066 10.6066C27.1066 8.61748 26.3164 6.70982 24.9099 5.3033C23.5033 3.89678 21.5957 3.1066 19.6066 3.1066C17.6174 3.1066 15.7098 3.89678 14.3033 5.3033C12.8967 6.70982 12.1066 8.61748 12.1066 10.6066C12.1066 12.5957 12.8967 14.5034 14.3033 15.9099ZM19.6066 7.25061C19.996 7.25061 20.3109 7.56549 20.3088 7.95288V9.90019H22.2561C22.6456 9.90019 22.9605 10.2151 22.9584 10.6025C22.9563 10.9898 22.6435 11.3068 22.2561 11.3047H20.3088V13.252C20.3088 13.6415 19.994 13.9564 19.6066 13.9543C19.2192 13.9522 18.9022 13.6394 18.9043 13.252V11.3047H16.957C16.5675 11.3047 16.2526 10.9898 16.2547 10.6025C16.2568 10.2151 16.5696 9.89811 16.957 9.90019H18.9043V7.95288C18.9043 7.56342 19.2192 7.24853 19.6066 7.25061Z" fill="#509BF8"/>
</svg>
