<svg width="19" height="19" viewBox="0 0 19 19" fill="none" xmlns="http://www.w3.org/2000/svg">
<path d="M18.4767 5.27067L16.7659 6.98148C16.5915 7.1559 16.3094 7.1559 16.135 6.98148L12.0157 2.86217C11.8413 2.68775 11.8413 2.40571 12.0157 2.23129L13.7265 0.52048C14.4205 -0.173493 15.5487 -0.173493 16.2464 0.52048L18.4767 2.75084C19.1744 3.44481 19.1744 4.57298 18.4767 5.27067ZM10.5461 3.70088L0.80072 13.4462L0.0139651 17.9552C-0.0936571 18.5638 0.437032 19.0907 1.04565 18.9868L5.55465 18.1964L15.3 8.45107C15.4744 8.27665 15.4744 7.99461 15.3 7.82018L11.1807 3.70088C11.0026 3.52646 10.7205 3.52646 10.5461 3.70088ZM4.60461 12.6112C4.4005 12.4071 4.4005 12.0805 4.60461 11.8764L10.3197 6.16133C10.5238 5.95722 10.8504 5.95722 11.0545 6.16133C11.2586 6.36544 11.2586 6.69201 11.0545 6.89612L5.33941 12.6112C5.1353 12.8153 4.80872 12.8153 4.60461 12.6112ZM3.2649 15.7322H5.04623V17.0793L2.65256 17.4987L1.49841 16.3445L1.91776 13.9509H3.2649V15.7322Z" fill="#509BF8"/>
</svg>
