<svg width="16" height="15" viewBox="0 0 16 15" fill="none" xmlns="http://www.w3.org/2000/svg">
<path d="M8.57589 0.527285C8.42063 0.205055 8.09255 0 7.73223 0C7.37192 0 7.04676 0.205055 6.88858 0.527285L5.005 4.40283L0.798439 5.02385C0.446916 5.07658 0.15398 5.32265 0.0455939 5.65952C-0.0627924 5.9964 0.0250883 6.36843 0.277013 6.61742L3.32941 9.63759L2.60878 13.9057C2.5502 14.2572 2.69666 14.6146 2.98667 14.8226C3.27668 15.0305 3.66042 15.0569 3.97679 14.8899L7.73516 12.8833L11.4935 14.8899C11.8099 15.0569 12.1936 15.0335 12.4837 14.8226C12.7737 14.6116 12.9201 14.2572 12.8615 13.9057L12.138 9.63759L15.1904 6.61742C15.4423 6.36843 15.5331 5.9964 15.4218 5.65952C15.3105 5.32265 15.0205 5.07658 14.669 5.02385L10.4595 4.40283L8.57589 0.527285Z" fill="#509BF8"/>
</svg>
