<svg width="37" height="33" viewBox="0 0 37 33" fill="none" xmlns="http://www.w3.org/2000/svg">
<path d="M13.4986 31.2807C6.04275 31.2807 0 26.2944 0 20.1404C0 13.9864 6.04275 9 13.4986 9C20.9545 9 26.9973 13.9864 26.9973 20.1404C26.9973 22.5559 26.064 24.7893 24.4821 26.6157C24.5823 27.9279 25.0832 29.0955 25.6105 29.9846C25.9005 30.4773 26.1958 30.8737 26.412 31.1415C26.5227 31.2754 26.6071 31.3771 26.6703 31.4468C26.702 31.4789 26.7231 31.5057 26.7389 31.5218L26.7547 31.5378C26.9973 31.7842 27.0658 32.1484 26.934 32.4698C26.8022 32.7911 26.4963 33 26.1536 33C24.6403 33 23.1164 32.5233 21.8509 31.9663C20.6434 31.4307 19.6152 30.7934 18.9877 30.3274C17.3109 30.9433 15.4549 31.2861 13.4986 31.2861V31.2807ZM20.2479 18.4265C19.8004 18.4265 19.3713 18.607 19.0548 18.9285C18.7384 19.2499 18.5606 19.6858 18.5606 20.1404C18.5606 20.5949 18.7384 21.0309 19.0548 21.3523C19.3713 21.6737 19.8004 21.8543 20.2479 21.8543C20.6955 21.8543 21.1246 21.6737 21.4411 21.3523C21.7575 21.0309 21.9353 20.5949 21.9353 20.1404C21.9353 19.6858 21.7575 19.2499 21.4411 18.9285C21.1246 18.607 20.6955 18.4265 20.2479 18.4265ZM13.4986 18.4265C13.0511 18.4265 12.6219 18.607 12.3055 18.9285C11.9891 19.2499 11.8113 19.6858 11.8113 20.1404C11.8113 20.5949 11.9891 21.0309 12.3055 21.3523C12.6219 21.6737 13.0511 21.8543 13.4986 21.8543C13.9461 21.8543 14.3753 21.6737 14.6918 21.3523C15.0082 21.0309 15.186 20.5949 15.186 20.1404C15.186 19.6858 15.0082 19.2499 14.6918 18.9285C14.3753 18.607 13.9461 18.4265 13.4986 18.4265ZM8.43664 20.1404C8.43664 19.6858 8.25887 19.2499 7.94244 18.9285C7.626 18.607 7.19682 18.4265 6.74932 18.4265C6.30181 18.4265 5.87263 18.607 5.55619 18.9285C5.23976 19.2499 5.06199 19.6858 5.06199 20.1404C5.06199 20.5949 5.23976 21.0309 5.55619 21.3523C5.87263 21.6737 6.30181 21.8543 6.74932 21.8543C7.19682 21.8543 7.626 21.6737 7.94244 21.3523C8.25887 21.0309 8.43664 20.5949 8.43664 20.1404Z" fill="#C8C8C8"/>
<path d="M20.3033 15.9099C21.7098 17.3164 23.6174 18.1066 25.6066 18.1066C27.5957 18.1066 29.5033 17.3164 30.9099 15.9099C32.3164 14.5034 33.1066 12.5957 33.1066 10.6066C33.1066 8.61748 32.3164 6.70982 30.9099 5.3033C29.5033 3.89678 27.5957 3.1066 25.6066 3.1066C23.6174 3.1066 21.7098 3.89678 20.3033 5.3033C18.8967 6.70982 18.1066 8.61748 18.1066 10.6066C18.1066 12.5957 18.8967 14.5034 20.3033 15.9099ZM25.6066 7.25061C25.996 7.25061 26.3109 7.56549 26.3088 7.95288V9.90019H28.2561C28.6456 9.90019 28.9605 10.2151 28.9584 10.6025C28.9563 10.9898 28.6435 11.3068 28.2561 11.3047H26.3088V13.252C26.3088 13.6415 25.994 13.9564 25.6066 13.9543C25.2192 13.9522 24.9022 13.6394 24.9043 13.252V11.3047H22.957C22.5675 11.3047 22.2526 10.9898 22.2547 10.6025C22.2568 10.2151 22.5696 9.89811 22.957 9.90019H24.9043V7.95288C24.9043 7.56342 25.2192 7.24853 25.6066 7.25061Z" fill="#509BF8"/>
</svg>
