<svg width="28" height="30" viewBox="0 0 28 30" fill="none" xmlns="http://www.w3.org/2000/svg">
<path d="M3.42857 12C1.53571 12 0 13.5117 0 15.375V26.625C0 28.4883 1.53571 30 3.42857 30H13.7143H14.8571C15.4893 30 16 29.4973 16 28.875C16 28.2527 15.4893 27.75 14.8571 27.75V25.5C15.4893 25.5 16 24.9973 16 24.375V13.125C16 12.5027 15.4893 12 14.8571 12H13.7143H3.42857ZM3.42857 25.5H12.5714V27.75H3.42857C2.79643 27.75 2.28571 27.2473 2.28571 26.625C2.28571 26.0027 2.79643 25.5 3.42857 25.5ZM4.57143 17.0625C4.57143 16.7531 4.82857 16.5 5.14286 16.5H12C12.3143 16.5 12.5714 16.7531 12.5714 17.0625C12.5714 17.3719 12.3143 17.625 12 17.625H5.14286C4.82857 17.625 4.57143 17.3719 4.57143 17.0625ZM5.14286 18.75H12C12.3143 18.75 12.5714 19.0031 12.5714 19.3125C12.5714 19.6219 12.3143 19.875 12 19.875H5.14286C4.82857 19.875 4.57143 19.6219 4.57143 19.3125C4.57143 19.0031 4.82857 18.75 5.14286 18.75Z" fill="#C8C8C8"/>
<path d="M11.3033 15.9099C12.7098 17.3164 14.6174 18.1066 16.6066 18.1066C18.5957 18.1066 20.5033 17.3164 21.9099 15.9099C23.3164 14.5034 24.1066 12.5957 24.1066 10.6066C24.1066 8.61748 23.3164 6.70982 21.9099 5.3033C20.5033 3.89678 18.5957 3.1066 16.6066 3.1066C14.6174 3.1066 12.7098 3.89678 11.3033 5.3033C9.89674 6.70982 9.10657 8.61748 9.10657 10.6066C9.10657 12.5957 9.89674 14.5034 11.3033 15.9099ZM16.6066 7.25061C16.996 7.25061 17.3109 7.56549 17.3088 7.95288V9.90019H19.2561C19.6456 9.90019 19.9605 10.2151 19.9584 10.6025C19.9563 10.9898 19.6435 11.3068 19.2561 11.3047H17.3088V13.252C17.3088 13.6415 16.994 13.9564 16.6066 13.9543C16.2192 13.9522 15.9022 13.6394 15.9043 13.252V11.3047H13.957C13.5675 11.3047 13.2526 10.9898 13.2547 10.6025C13.2568 10.2151 13.5696 9.89811 13.957 9.90019H15.9043V7.95288C15.9043 7.56342 16.2192 7.24853 16.6066 7.25061Z" fill="#509BF8"/>
</svg>
