<svg width="15" height="15" viewBox="0 0 15 15" fill="none" xmlns="http://www.w3.org/2000/svg">
<path d="M7.48624 1.21938e-05C5.48214 0.00361098 3.66251 0.793348 2.3191 2.07718L1.23904 0.997118C0.781784 0.539861 0 0.863691 0 1.51032V5.56452C0 5.96538 0.32495 6.29033 0.725806 6.29033H4.78001C5.42664 6.29033 5.75047 5.50855 5.29325 5.05129L4.03064 3.78869C4.96403 2.91473 6.1718 2.43061 7.45494 2.41955C10.2492 2.39541 12.6046 4.65675 12.5805 7.5438C12.5575 10.2825 10.3372 12.5806 7.5 12.5806C6.25624 12.5806 5.08074 12.1368 4.15433 11.3239C4.0109 11.1981 3.79427 11.2057 3.65933 11.3406L2.45988 12.5401C2.31254 12.6874 2.31983 12.9276 2.47446 13.0673C3.80437 14.2685 5.56675 15 7.5 15C11.6421 15 15 11.6421 15 7.50007C15 3.3627 11.6236 -0.00739707 7.48624 1.21938e-05Z" fill="#B8B8B8"/>
</svg>
