<svg width="16" height="18" viewBox="0 0 16 18" fill="none" xmlns="http://www.w3.org/2000/svg">
<path d="M3.42857 0C1.53571 0 0 1.51172 0 3.375V14.625C0 16.4883 1.53571 18 3.42857 18H13.7143H14.8571C15.4893 18 16 17.4973 16 16.875C16 16.2527 15.4893 15.75 14.8571 15.75V13.5C15.4893 13.5 16 12.9973 16 12.375V1.125C16 0.502734 15.4893 0 14.8571 0H13.7143H3.42857ZM3.42857 13.5H12.5714V15.75H3.42857C2.79643 15.75 2.28571 15.2473 2.28571 14.625C2.28571 14.0027 2.79643 13.5 3.42857 13.5ZM4.57143 5.0625C4.57143 4.75312 4.82857 4.5 5.14286 4.5H12C12.3143 4.5 12.5714 4.75312 12.5714 5.0625C12.5714 5.37188 12.3143 5.625 12 5.625H5.14286C4.82857 5.625 4.57143 5.37188 4.57143 5.0625ZM5.14286 6.75H12C12.3143 6.75 12.5714 7.00312 12.5714 7.3125C12.5714 7.62188 12.3143 7.875 12 7.875H5.14286C4.82857 7.875 4.57143 7.62188 4.57143 7.3125C4.57143 7.00312 4.82857 6.75 5.14286 6.75Z" fill="#509BF8"/>
</svg>
