<svg width="19" height="16" viewBox="0 0 19 16" fill="none" xmlns="http://www.w3.org/2000/svg">
<path d="M9.14267 14.8538C14.1915 14.8538 18.2835 11.5296 18.2835 7.42691C18.2835 3.32426 14.1915 0 9.14267 0C4.0938 0 0.00185508 3.32426 0.00185508 7.42691C0.00185508 9.03727 0.633857 10.5262 1.70505 11.7438C1.6372 12.6186 1.29799 13.397 0.940931 13.9897C0.744547 14.3182 0.544591 14.5825 0.398195 14.761C0.323212 14.8503 0.266082 14.9181 0.223234 14.9645C0.20181 14.9859 0.187528 15.0038 0.176816 15.0145L0.166104 15.0252C0.00185508 15.1895 -0.0445631 15.4323 0.0447027 15.6465C0.133968 15.8607 0.341065 16 0.573156 16C1.59793 16 2.62984 15.6822 3.48679 15.3109C4.30447 14.9538 5.00074 14.5289 5.42565 14.2183C6.56111 14.6289 7.81797 14.8574 9.14267 14.8574V14.8538ZM4.57226 6.28431C4.8753 6.28431 5.16593 6.40469 5.38021 6.61897C5.59449 6.83325 5.71487 7.12388 5.71487 7.42691C5.71487 7.72995 5.59449 8.02058 5.38021 8.23486C5.16593 8.44913 4.8753 8.56952 4.57226 8.56952C4.26923 8.56952 3.9786 8.44913 3.76432 8.23486C3.55004 8.02058 3.42966 7.72995 3.42966 7.42691C3.42966 7.12388 3.55004 6.83325 3.76432 6.61897C3.9786 6.40469 4.26923 6.28431 4.57226 6.28431ZM9.14267 6.28431C9.44571 6.28431 9.73634 6.40469 9.95061 6.61897C10.1649 6.83325 10.2853 7.12388 10.2853 7.42691C10.2853 7.72995 10.1649 8.02058 9.95061 8.23486C9.73634 8.44913 9.44571 8.56952 9.14267 8.56952C8.83964 8.56952 8.54901 8.44913 8.33473 8.23486C8.12045 8.02058 8.00007 7.72995 8.00007 7.42691C8.00007 7.12388 8.12045 6.83325 8.33473 6.61897C8.54901 6.40469 8.83964 6.28431 9.14267 6.28431ZM12.5705 7.42691C12.5705 7.12388 12.6909 6.83325 12.9051 6.61897C13.1194 6.40469 13.41 6.28431 13.7131 6.28431C14.0161 6.28431 14.3067 6.40469 14.521 6.61897C14.7353 6.83325 14.8557 7.12388 14.8557 7.42691C14.8557 7.72995 14.7353 8.02058 14.521 8.23486C14.3067 8.44913 14.0161 8.56952 13.7131 8.56952C13.41 8.56952 13.1194 8.44913 12.9051 8.23486C12.6909 8.02058 12.5705 7.72995 12.5705 7.42691Z" fill="#509BF8"/>
</svg>
