<svg width="18" height="19" viewBox="0 0 18 19" fill="none" xmlns="http://www.w3.org/2000/svg">
<path d="M13.2 1.78125C13.53 1.78125 13.8 2.04844 13.8 2.375V16.625C13.8 16.9516 13.53 17.2188 13.2 17.2188H2.4C2.07 17.2188 1.8 16.9516 1.8 16.625V2.375C1.8 2.04844 2.07 1.78125 2.4 1.78125H13.2ZM2.4 0C1.07625 0 0 1.06504 0 2.375V16.625C0 17.935 1.07625 19 2.4 19H13.2C14.5238 19 15.6 17.935 15.6 16.625V2.375C15.6 1.06504 14.5238 0 13.2 0H2.4ZM7.8 9.5C8.43652 9.5 9.04697 9.24978 9.49706 8.80438C9.94714 8.35898 10.2 7.75489 10.2 7.125C10.2 6.49511 9.94714 5.89102 9.49706 5.44562C9.04697 5.00022 8.43652 4.75 7.8 4.75C7.16348 4.75 6.55303 5.00022 6.10294 5.44562C5.65286 5.89102 5.4 6.49511 5.4 7.125C5.4 7.75489 5.65286 8.35898 6.10294 8.80438C6.55303 9.24978 7.16348 9.5 7.8 9.5ZM6.6 10.6875C4.9425 10.6875 3.6 12.016 3.6 13.6562C3.6 13.9828 3.87 14.25 4.2 14.25H11.4C11.73 14.25 12 13.9828 12 13.6562C12 12.016 10.6575 10.6875 9 10.6875H6.6ZM18 2.96875C18 2.64219 17.73 2.375 17.4 2.375C17.07 2.375 16.8 2.64219 16.8 2.96875V5.34375C16.8 5.67031 17.07 5.9375 17.4 5.9375C17.73 5.9375 18 5.67031 18 5.34375V2.96875ZM17.4 7.125C17.07 7.125 16.8 7.39219 16.8 7.71875V10.0938C16.8 10.4203 17.07 10.6875 17.4 10.6875C17.73 10.6875 18 10.4203 18 10.0938V7.71875C18 7.39219 17.73 7.125 17.4 7.125ZM18 12.4688C18 12.1422 17.73 11.875 17.4 11.875C17.07 11.875 16.8 12.1422 16.8 12.4688V14.8438C16.8 15.1703 17.07 15.4375 17.4 15.4375C17.73 15.4375 18 15.1703 18 14.8438V12.4688Z" fill="#509BF8"/>
</svg>
