<svg width="24" height="20" viewBox="0 0 24 20" fill="none" xmlns="http://www.w3.org/2000/svg">
<path d="M6 2.4C6 1.07625 7.07625 0 8.4 0H21.6C22.9238 0 24 1.07625 24 2.4V13.2C24 14.5237 22.9238 15.6 21.6 15.6H12.63C12.1875 14.6437 11.5088 13.8187 10.665 13.2H14.4V12C14.4 11.3362 14.9363 10.8 15.6 10.8H18C18.6638 10.8 19.2 11.3362 19.2 12V13.2H21.6V2.4H8.4V4.24125C7.695 3.8325 6.87375 3.6 6 3.6V2.4ZM6 4.8C6.47276 4.8 6.94089 4.89312 7.37766 5.07403C7.81443 5.25495 8.21129 5.52012 8.54558 5.85441C8.87988 6.18871 9.14505 6.58557 9.32597 7.02234C9.50688 7.45911 9.6 7.92724 9.6 8.4C9.6 8.87276 9.50688 9.34089 9.32597 9.77766C9.14505 10.2144 8.87988 10.6113 8.54558 10.9456C8.21129 11.2799 7.81443 11.545 7.37766 11.726C6.94089 11.9069 6.47276 12 6 12C5.52724 12 5.05911 11.9069 4.62234 11.726C4.18557 11.545 3.78871 11.2799 3.45442 10.9456C3.12012 10.6113 2.85495 10.2144 2.67403 9.77766C2.49312 9.34089 2.4 8.87276 2.4 8.4C2.4 7.92724 2.49312 7.45911 2.67403 7.02234C2.85495 6.58557 3.12012 6.18871 3.45442 5.85441C3.78871 5.52012 4.18557 5.25495 4.62234 5.07403C5.05911 4.89312 5.52724 4.8 6 4.8ZM4.99875 13.2H6.9975C9.76125 13.2 12 15.4387 12 18.1987C12 18.75 11.5538 19.2 10.9987 19.2H1.00125C0.44625 19.2 0 18.7537 0 18.1987C0 15.4387 2.23875 13.2 4.99875 13.2Z" fill="#509BF8"/>
</svg>
