<svg width="22" height="20" viewBox="0 0 22 20" fill="none" xmlns="http://www.w3.org/2000/svg">
<path d="M3.15789 5.26318C1.41053 5.26318 0 6.67371 0 8.42108V16.8421C0 18.5895 1.41053 20 3.15789 20H11.5789C13.3263 20 14.7368 18.5895 14.7368 16.8421V13.6842C14.7368 13.1053 14.2632 12.6316 13.6842 12.6316C13.1053 12.6316 12.6316 13.1053 12.6316 13.6842V16.8421C12.6316 17.4211 12.1579 17.8948 11.5789 17.8948H3.15789C2.57895 17.8948 2.10526 17.4211 2.10526 16.8421V8.42108C2.10526 7.84213 2.57895 7.36845 3.15789 7.36845H6.31579C6.89474 7.36845 7.36842 6.89476 7.36842 6.31582C7.36842 5.73687 6.89474 5.26318 6.31579 5.26318H3.15789Z" fill="#509BF8"/>
<path d="M11.2211 8.67368C11.1369 9.06316 10.8422 9.25263 10.3579 9.25263C9.78952 9.25263 9.53689 8.93684 9.60005 8.31579L11.6737 0.631579C11.8106 0.221053 12.1053 0 12.6001 0C13.0948 0 13.3685 0.221053 13.5053 0.631579L15.579 8.31579C15.6948 8.93684 15.4316 9.25263 14.8211 9.25263C14.3264 9.25263 14.0422 9.06316 13.9474 8.67368L13.6316 7.31579H11.5264L11.2211 8.67368ZM13.2843 5.78947L12.5895 2.65263L11.8737 5.78947H13.2843Z" fill="#509BF8"/>
<path d="M19.7579 6.04208C19.7579 6.25261 19.6737 6.43156 19.5053 6.55787C19.3789 6.67366 19.1789 6.73682 18.9158 6.73682C18.6526 6.73682 18.4316 6.67366 18.2947 6.54735C18.1579 6.43156 18.0842 6.25261 18.0842 6.04208V4.94735H16.9579C16.7579 4.94735 16.5895 4.87366 16.4526 4.70524C16.3263 4.5684 16.2737 4.3684 16.2737 4.11577C16.2737 3.82103 16.3263 3.6105 16.4526 3.47366C16.5789 3.33682 16.7579 3.27366 16.9579 3.27366H18.0842V2.14735C18.0842 1.94735 18.1474 1.7684 18.2842 1.64208C18.4105 1.52629 18.6421 1.46313 18.9158 1.46313C19.1895 1.46313 19.3789 1.52629 19.5263 1.65261C19.6947 1.77892 19.7684 1.94735 19.7684 2.14735V3.27366H20.8632C21.0737 3.27366 21.2526 3.34735 21.3684 3.50524C21.4947 3.65261 21.5579 3.86314 21.5579 4.12629C21.5579 4.42103 21.4947 4.64208 21.3579 4.7684C21.2421 4.89471 21.0842 4.95787 20.8632 4.95787H19.7684V6.05261L19.7579 6.04208Z" fill="#509BF8"/>
<path d="M10 12.3685H4.73686C4.30528 12.3685 3.94739 12.0106 3.94739 11.579C3.94739 11.1474 4.30528 10.7896 4.73686 10.7896H10C10.4316 10.7896 10.7895 11.1474 10.7895 11.579C10.7895 12.0106 10.4316 12.3685 10 12.3685Z" fill="#509BF8"/>
<path d="M10 15.5262H4.73686C4.30528 15.5262 3.94739 15.1683 3.94739 14.7367C3.94739 14.3052 4.30528 13.9473 4.73686 13.9473H10C10.4316 13.9473 10.7895 14.3052 10.7895 14.7367C10.7895 15.1683 10.4316 15.5262 10 15.5262Z" fill="#509BF8"/>
</svg>
