<svg width="24" height="22" viewBox="0 0 24 22" fill="none" xmlns="http://www.w3.org/2000/svg">
<path d="M3.47368 5.78955C1.55158 5.78955 0 7.34113 0 9.26324V18.5264C0 20.4485 1.55158 22.0001 3.47368 22.0001H12.7368C14.6589 22.0001 16.2105 20.4485 16.2105 18.5264V15.0527C16.2105 14.4159 15.6895 13.8948 15.0526 13.8948C14.4158 13.8948 13.8947 14.4159 13.8947 15.0527V18.5264C13.8947 19.1632 13.3737 19.6843 12.7368 19.6843H3.47368C2.83684 19.6843 2.31579 19.1632 2.31579 18.5264V9.26324C2.31579 8.62639 2.83684 8.10534 3.47368 8.10534H6.94737C7.58421 8.10534 8.10526 7.58429 8.10526 6.94745C8.10526 6.3106 7.58421 5.78955 6.94737 5.78955H3.47368Z" fill="#F45055"/>
<path d="M12.3433 9.54105C12.2506 9.96947 11.9264 10.1779 11.3938 10.1779C10.7685 10.1779 10.4906 9.83053 10.5601 9.14737L12.8412 0.694737C12.9917 0.243158 13.3159 0 13.8601 0C14.4043 0 14.7054 0.243158 14.8559 0.694737L17.1369 9.14737C17.2643 9.83053 16.9748 10.1779 16.3033 10.1779C15.7591 10.1779 15.4464 9.96947 15.3422 9.54105L14.9948 8.04737H12.6791L12.3433 9.54105ZM14.6127 6.36842L13.8485 2.91789L13.0612 6.36842H14.6127Z" fill="#F45055"/>
<path d="M21.7336 6.64622C21.7336 6.8778 21.641 7.07464 21.4557 7.21359C21.3168 7.34095 21.0968 7.41043 20.8073 7.41043C20.5178 7.41043 20.2747 7.34095 20.1242 7.20201C19.9736 7.07464 19.8926 6.8778 19.8926 6.64622V5.44201H18.6536C18.4336 5.44201 18.2484 5.36095 18.0978 5.17569C17.9589 5.02516 17.901 4.80516 17.901 4.52727C17.901 4.20306 17.9589 3.97148 18.0978 3.82095C18.2368 3.67043 18.4336 3.60095 18.6536 3.60095H19.8926V2.36201C19.8926 2.14201 19.9621 1.94516 20.1126 1.80622C20.2515 1.67885 20.5063 1.60938 20.8073 1.60938C21.1084 1.60938 21.3168 1.67885 21.4789 1.8178C21.6642 1.95674 21.7452 2.14201 21.7452 2.36201V3.60095H22.9494C23.181 3.60095 23.3778 3.68201 23.5052 3.85569C23.6442 4.0178 23.7136 4.24938 23.7136 4.53885C23.7136 4.86306 23.6442 5.10622 23.4936 5.24516C23.3663 5.38411 23.1926 5.45359 22.9494 5.45359H21.7452V6.6578L21.7336 6.64622Z" fill="#F45055"/>
<path d="M11.0001 13.6055H5.21058C4.73585 13.6055 4.34216 13.2118 4.34216 12.7371C4.34216 12.2623 4.73585 11.8687 5.21058 11.8687H11.0001C11.4748 11.8687 11.8685 12.2623 11.8685 12.7371C11.8685 13.2118 11.4748 13.6055 11.0001 13.6055Z" fill="#F45055"/>
<path d="M11.0001 17.0786H5.21058C4.73585 17.0786 4.34216 16.685 4.34216 16.2102C4.34216 15.7355 4.73585 15.3418 5.21058 15.3418H11.0001C11.4748 15.3418 11.8685 15.7355 11.8685 16.2102C11.8685 16.685 11.4748 17.0786 11.0001 17.0786Z" fill="#F45055"/>
</svg>
